<svg height="464pt" viewBox="-80 0 464 464" width="464pt" xmlns="http://www.w3.org/2000/svg"><path d="m24 0h256c13.253906 0 24 10.746094 24 24v408h-304v-408c0-13.253906 10.746094-24 24-24zm0 0" fill="#aabece"/><path d="m24 432h256v32h-256zm0 0" fill="#5a6470"/><path d="m0 288h304v144h-304zm0 0" fill="#36afad"/><path d="m40 96h16c4.417969 0 8 3.582031 8 8v104h-32v-104c0-4.417969 3.582031-8 8-8zm0 0" fill="#5a6470"/><path d="m40 336h16c4.417969 0 8 3.582031 8 8v40h-32v-40c0-4.417969 3.582031-8 8-8zm0 0" fill="#5a6470"/><g fill="#fff"><path d="m272 80c-4.417969 0-8-3.582031-8-8v-32h-56c-4.417969 0-8-3.582031-8-8s3.582031-8 8-8h64c4.417969 0 8 3.582031 8 8v40c0 4.417969-3.582031 8-8 8zm0 0"/><path d="m272 408h-48c-4.417969 0-8-3.582031-8-8s3.582031-8 8-8h40v-24c0-4.417969 3.582031-8 8-8s8 3.582031 8 8v32c0 4.417969-3.582031 8-8 8zm0 0"/><path d="m272 136c-4.417969 0-8-3.582031-8-8v-24c0-4.417969 3.582031-8 8-8s8 3.582031 8 8v24c0 4.417969-3.582031 8-8 8zm0 0"/></g></svg>