<svg height="464pt" viewBox="-40 0 464 464" width="464pt" xmlns="http://www.w3.org/2000/svg"><path d="m0 64h384v384c0 8.835938-7.164062 16-16 16h-352c-8.835938 0-16-7.164062-16-16zm0 0" fill="#aabece"/><path d="m336 280c0 79.527344-64.472656 144-144 144s-144-64.472656-144-144 64.472656-144 144-144 144 64.472656 144 144zm0 0" fill="#747c84"/><path d="m288 280c0 53.019531-42.980469 96-96 96s-96-42.980469-96-96 42.980469-96 96-96 96 42.980469 96 96zm0 0" fill="#cfdfe8"/><path d="m384 64h-384l8-64h368zm0 0" fill="#5a6470"/><path d="m230.769531 290.113281c-36 5.335938-33.480469 22.398438-69.488281 27.765625-30.527344 4.519532-37.058594-7.03125-60.265625-7.414062 13.839844 41.570312 54.089844 68.480468 97.796875 65.378906 43.707031-3.097656 79.753906-35.421875 87.585938-78.53125-19.621094-1.6875-27.246094-11.402344-55.628907-7.199219zm0 0" fill="#36afad"/><g fill="#aabece"><path d="m48 24h16v16h-16zm0 0"/><path d="m80 24h16v16h-16zm0 0"/><path d="m112 24h16v16h-16zm0 0"/><path d="m144 24h16v16h-16zm0 0"/><path d="m176 24h16v16h-16zm0 0"/><path d="m232 40h-16c-4.417969 0-8-3.582031-8-8s3.582031-8 8-8h16c4.417969 0 8 3.582031 8 8s-3.582031 8-8 8zm0 0"/><path d="m280 40h-16c-4.417969 0-8-3.582031-8-8s3.582031-8 8-8h16c4.417969 0 8 3.582031 8 8s-3.582031 8-8 8zm0 0"/><path d="m328 40h-16c-4.417969 0-8-3.582031-8-8s3.582031-8 8-8h16c4.417969 0 8 3.582031 8 8s-3.582031 8-8 8zm0 0"/></g><path d="m64 112c0 8.835938-7.164062 16-16 16s-16-7.164062-16-16 7.164062-16 16-16 16 7.164062 16 16zm0 0" fill="#5a6470"/><path d="m112 112c0 8.835938-7.164062 16-16 16s-16-7.164062-16-16 7.164062-16 16-16 16 7.164062 16 16zm0 0" fill="#5a6470"/><path d="m232 312h16v16h-16zm0 0" fill="#fff"/><path d="m216 328h16v16h-16zm0 0" fill="#fff"/></svg>