<svg height="464pt" viewBox="0 -56 464 464" width="464pt" xmlns="http://www.w3.org/2000/svg"><path d="m0 0h464v320h-464zm0 0" fill="#36afad"/><path d="m16 320h432v32h-432zm0 0" fill="#5a6470"/><path d="m32 32h336v256h-336zm0 0" fill="#cfdfe8"/><g fill="#fdbd40"><path d="m392 40h16v16h-16zm0 0"/><path d="m424 40h16v16h-16zm0 0"/><path d="m392 72h16v16h-16zm0 0"/><path d="m424 72h16v16h-16zm0 0"/><path d="m392 104h16v16h-16zm0 0"/><path d="m424 104h16v16h-16zm0 0"/><path d="m432 152h-32c-4.417969 0-8-3.582031-8-8s3.582031-8 8-8h32c4.417969 0 8 3.582031 8 8s-3.582031 8-8 8zm0 0"/><path d="m432 184h-32c-4.417969 0-8-3.582031-8-8s3.582031-8 8-8h32c4.417969 0 8 3.582031 8 8s-3.582031 8-8 8zm0 0"/><path d="m432 216h-32c-4.417969 0-8-3.582031-8-8s3.582031-8 8-8h32c4.417969 0 8 3.582031 8 8s-3.582031 8-8 8zm0 0"/><path d="m440 256c0 13.253906-10.746094 24-24 24s-24-10.746094-24-24 10.746094-24 24-24 24 10.746094 24 24zm0 0"/></g><path d="m224 160h-6.230469c8.707031-9.589844 8.234375-24.363281-1.074219-33.375-9.304687-9.011719-24.085937-9.011719-33.390624 0-9.308594 9.011719-9.78125 23.785156-1.074219 33.375h-6.230469c-53.019531 0-96 42.980469-96 96h240c0-53.019531-42.980469-96-96-96zm0 0" fill="#e9686a"/><path d="m81.40625 160.0625c-2.132812 0-4.175781-.851562-5.679688-2.363281-1.5-1.515625-2.335937-3.566407-2.320312-5.699219.453125-6.953125 4.652344-13.109375 10.960938-16.070312 1.335937-.757813 2.566406-1.679688 3.664062-2.746094-.375-.359375-2.398438-1.671875-3.664062-2.464844-6.308594-2.960938-10.507813-9.117188-10.960938-16.070312.453125-6.953126 4.65625-13.109376 10.96875-16.0625 1.332031-.753907 2.5625-1.671876 3.65625-2.738282-.003906-2.117187.839844-4.144531 2.34375-5.632812 1.503906-1.488282 3.542969-2.3125 5.65625-2.285156 2.128906.007812 4.167969.863281 5.664062 2.378906 1.492188 1.515625 2.324219 3.5625 2.304688 5.691406-.453125 6.953125-4.65625 13.109375-10.96875 16.0625-1.332031.75-2.5625 1.667969-3.65625 2.738281.378906.34375 2.402344 1.664063 3.664062 2.445313 6.3125 2.964844 10.511719 9.125 10.960938 16.082031-.449219 6.953125-4.652344 13.109375-10.960938 16.0625-1.332031.757813-2.5625 1.679687-3.664062 2.746094.003906 2.109375-.835938 4.136719-2.332031 5.625-1.496094 1.488281-3.523438 2.316406-5.636719 2.300781zm0 0" fill="#e9686a"/><path d="m129.40625 144.0625c-2.132812 0-4.175781-.851562-5.679688-2.363281-1.5-1.515625-2.335937-3.566407-2.320312-5.699219.453125-6.953125 4.652344-13.109375 10.960938-16.070312 1.335937-.757813 2.566406-1.679688 3.664062-2.746094-.375-.359375-2.398438-1.671875-3.664062-2.464844-6.308594-2.960938-10.507813-9.117188-10.960938-16.070312.453125-6.953126 4.65625-13.109376 10.96875-16.0625 1.332031-.753907 2.5625-1.671876 3.65625-2.738282-.003906-2.117187.839844-4.144531 2.34375-5.632812 1.503906-1.488282 3.542969-2.3125 5.65625-2.285156 2.128906.007812 4.167969.863281 5.664062 2.378906 1.492188 1.515625 2.324219 3.5625 2.304688 5.691406-.453125 6.953125-4.65625 13.109375-10.96875 16.0625-1.332031.75-2.5625 1.667969-3.65625 2.738281.378906.34375 2.402344 1.664063 3.664062 2.445313 6.3125 2.964844 10.511719 9.125 10.960938 16.082031-.449219 6.953125-4.652344 13.109375-10.960938 16.0625-1.332031.757813-2.5625 1.679687-3.664062 2.746094.003906 2.109375-.835938 4.136719-2.332031 5.625-1.496094 1.488281-3.523438 2.316406-5.636719 2.300781zm0 0" fill="#e9686a"/><path d="m318.558594 168c-4.417969 0-8-3.582031-8-8-1.105469-.988281-2.3125-1.863281-3.597656-2.609375-6.308594-2.953125-10.511719-9.109375-10.960938-16.0625.449219-6.957031 4.648438-13.117187 10.960938-16.082031 1.332031-.75 2.5625-1.667969 3.664062-2.734375-.378906-.351563-2.402344-1.664063-3.65625-2.449219-6.3125-2.953125-10.515625-9.109375-10.96875-16.0625 0-4.417969 3.582031-8 8-8s8 3.582031 8 8v.046875c1.125.945313 2.328125 1.792969 3.59375 2.539063 6.3125 2.953124 10.515625 9.109374 10.964844 16.0625-.453125 6.953124-4.652344 13.109374-10.957032 16.070312-1.335937.753906-2.566406 1.675781-3.664062 2.746094.375.351562 2.398438 1.671875 3.664062 2.464844 6.304688 2.960937 10.503907 9.117187 10.957032 16.070312 0 4.417969-3.582032 8-8 8zm0 0" fill="#e9686a"/><path d="m270.558594 144c-4.417969 0-8-3.582031-8-8-1.105469-.988281-2.3125-1.863281-3.597656-2.609375-6.308594-2.953125-10.511719-9.109375-10.960938-16.0625.449219-6.957031 4.648438-13.117187 10.960938-16.082031 1.332031-.75 2.5625-1.667969 3.664062-2.734375-.378906-.351563-2.402344-1.664063-3.65625-2.449219-6.3125-2.953125-10.515625-9.109375-10.96875-16.0625 0-4.417969 3.582031-8 8-8s8 3.582031 8 8v.046875c1.125.945313 2.328125 1.792969 3.59375 2.539063 6.3125 2.953124 10.515625 9.109374 10.964844 16.0625-.453125 6.953124-4.652344 13.109374-10.957032 16.070312-1.335937.753906-2.566406 1.675781-3.664062 2.746094.375.351562 2.398438 1.671875 3.664062 2.464844 6.304688 2.960937 10.503907 9.117187 10.957032 16.070312 0 4.417969-3.582032 8-8 8zm0 0" fill="#e9686a"/></svg>