<?xml version="1.0" encoding="iso-8859-1"?>
<!-- Generator: Adobe Illustrator 19.0.0, SVG Export Plug-In . SVG Version: 6.00 Build 0)  -->
<svg version="1.1" id="Capa_1" xmlns="http://www.w3.org/2000/svg" xmlns:xlink="http://www.w3.org/1999/xlink" x="0px" y="0px"
	 viewBox="0 0 512 512" style="enable-background:new 0 0 512 512;" xml:space="preserve">
<rect x="44.138" style="fill:#4398D1;" width="423.724" height="512"/>
<path style="fill:#3E8CC7;" d="M44.138,464.243V512h423.724V112.463C362.814,281.07,176.022,397.948,44.138,464.243z"/>
<rect x="44.138" y="79.448" style="fill:#126099;" width="423.724" height="17.655"/>
<path style="fill:#87CED9;" d="M97.103,123.586h317.793c9.754,0,17.655,7.901,17.655,17.655v317.793
	c0,9.754-7.901,17.655-17.655,17.655H97.103c-9.754,0-17.655-7.901-17.655-17.655V141.241
	C79.448,131.487,87.349,123.586,97.103,123.586z"/>
<g>
	<circle style="fill:#E5E5E5;" cx="317.793" cy="44.138" r="17.655"/>
	<rect x="70.621" y="35.31" style="fill:#E5E5E5;" width="17.655" height="17.655"/>
	<rect x="423.724" y="35.31" style="fill:#E5E5E5;" width="17.655" height="17.655"/>
	<rect x="388.414" y="35.31" style="fill:#E5E5E5;" width="17.655" height="17.655"/>
	<rect x="353.103" y="35.31" style="fill:#E5E5E5;" width="17.655" height="17.655"/>
	<rect x="264.828" y="35.31" style="fill:#E5E5E5;" width="17.655" height="17.655"/>
</g>
<g>
	<polygon style="fill:#FFFFFF;" points="317.793,264.828 256,264.828 264.828,176.552 308.966,176.552 	"/>
	<polygon style="fill:#FFFFFF;" points="406.069,264.828 344.276,264.828 353.103,176.552 397.241,176.552 	"/>
	<path style="fill:#FFFFFF;" d="M229.517,264.828L229.517,264.828c-24.373,0-44.138-19.765-44.138-44.138v-17.655
		c0-24.373,19.765-44.138,44.138-44.138l0,0V264.828z"/>
</g>
<path style="fill:#E5E5E5;" d="M194.207,264.828L194.207,264.828c-24.373,0-44.138-19.765-44.138-44.138v-17.655
	c0-24.373,19.765-44.138,44.138-44.138l0,0V264.828z"/>
<g>
	<path style="fill:#FFFFFF;" d="M158.897,264.828L158.897,264.828c-24.373,0-44.138-19.765-44.138-44.138v-17.655
		c0-24.373,19.765-44.138,44.138-44.138l0,0V264.828z"/>
	<circle style="fill:#FFFFFF;" cx="361.931" cy="370.759" r="70.621"/>
</g>
<g>
	<path style="fill:#E5E5E5;" d="M335.448,370.759h-17.655c0-24.373,19.765-44.138,44.138-44.138v17.655
		C347.304,344.276,335.448,356.131,335.448,370.759z"/>
	<path style="fill:#E5E5E5;" d="M361.931,414.897v-17.655c14.627,0,26.483-11.855,26.483-26.483h17.655
		C406.069,395.132,386.304,414.897,361.931,414.897z"/>
	<path style="fill:#E5E5E5;" d="M256,441.379L256,441.379c-29.255,0-52.966-23.711-52.966-52.966v-35.31
		c0-29.255,23.711-52.966,52.966-52.966l0,0V441.379z"/>
</g>
<path style="fill:#FFFFFF;" d="M211.862,441.379L211.862,441.379c-29.255,0-52.966-23.711-52.966-52.966v-35.31
	c0-29.255,23.711-52.966,52.966-52.966l0,0V441.379z"/>
<path style="fill:#E5E5E5;" d="M167.724,441.379L167.724,441.379c-29.255,0-52.966-23.711-52.966-52.966v-35.31
	c0-29.255,23.711-52.966,52.966-52.966l0,0V441.379z"/>
<g>
	<rect x="79.448" y="256" style="fill:#ABE2EB;" width="353.103" height="17.655"/>
	<rect x="79.448" y="432.552" style="fill:#ABE2EB;" width="353.103" height="17.655"/>
	<rect x="79.448" y="220.69" style="fill:#ABE2EB;" width="353.103" height="17.655"/>
	<rect x="79.448" y="397.241" style="fill:#ABE2EB;" width="353.103" height="17.655"/>
</g>
<g>
</g>
<g>
</g>
<g>
</g>
<g>
</g>
<g>
</g>
<g>
</g>
<g>
</g>
<g>
</g>
<g>
</g>
<g>
</g>
<g>
</g>
<g>
</g>
<g>
</g>
<g>
</g>
<g>
</g>
</svg>
