<?xml version="1.0" encoding="iso-8859-1"?>
<!-- Generator: Adobe Illustrator 19.0.0, SVG Export Plug-In . SVG Version: 6.00 Build 0)  -->
<svg version="1.1" id="Capa_1" xmlns="http://www.w3.org/2000/svg" xmlns:xlink="http://www.w3.org/1999/xlink" x="0px" y="0px"
	 viewBox="0 0 512 512" style="enable-background:new 0 0 512 512;" xml:space="preserve">
<path style="fill:#E5E5E5;" d="M278.066,291.31l114.759-26.483V150.069h-79.448v-35.31h97.103c9.754,0,17.655,7.901,17.655,17.655
	v144.861c0.212,8.386-5.508,15.766-13.683,17.655l-136.386,31.691V291.31z"/>
<g>
	<polygon style="fill:#DEDEDE;" points="278.066,291.31 278.066,326.621 335.357,313.115 340.301,276.921 	"/>
	<polygon style="fill:#DEDEDE;" points="313.376,114.759 313.376,150.069 357.779,150.069 362.723,114.759 	"/>
</g>
<path style="fill:#4398D1;" d="M339.859,512H110.342v-32.309c-0.035-19.43,4.467-38.594,13.153-55.967l8.828-17.655
	c8.748-17.364,13.312-36.529,13.33-55.967v-5.826h158.897c0.018,17.452,3.69,34.719,10.77,50.67l13.771,31.073
	c7.08,15.951,10.752,33.218,10.77,50.67L339.859,512L339.859,512z"/>
<polygon style="fill:#E5E5E5;" points="304.549,344.276 145.652,344.276 119.17,132.414 83.859,79.448 339.859,79.448 "/>
<path style="fill:#4398D1;" d="M154.48,35.31h141.241c24.373,0,44.138,19.765,44.138,44.138l0,0l0,0H110.342l0,0l0,0
	C110.342,55.075,130.098,35.31,154.48,35.31z"/>
<rect x="189.79" style="fill:#E5E5E5;" width="70.621" height="35.31"/>
<g>
	
		<rect x="176.531" y="123.5" transform="matrix(-0.9989 0.0476 -0.0476 -0.9989 380.8031 423.4934)" style="fill:#CFCFCF;" width="17.656" height="185.562"/>
	
		<rect x="173.004" y="207.743" transform="matrix(-0.0499 0.9988 -0.9988 -0.0499 495.4881 -38.2101)" style="fill:#CFCFCF;" width="185.829" height="17.656"/>
</g>
<path style="fill:#3E8CC7;" d="M315.319,394.946c-1.739-3.858-3.266-7.812-4.59-11.829
	c-59.145,66.119-147.421,97.457-200.386,111.228V512h229.517v-35.31c-0.018-17.452-3.69-34.719-10.77-50.67L315.319,394.946z"/>
<circle style="fill:#87CED9;" cx="225.101" cy="432.552" r="35.31"/>
<g>
</g>
<g>
</g>
<g>
</g>
<g>
</g>
<g>
</g>
<g>
</g>
<g>
</g>
<g>
</g>
<g>
</g>
<g>
</g>
<g>
</g>
<g>
</g>
<g>
</g>
<g>
</g>
<g>
</g>
</svg>
