<svg height="464pt" viewBox="0 -16 464 464" width="464pt" xmlns="http://www.w3.org/2000/svg"><path d="m392 432h-320l-16-32h352zm0 0" fill="#5a6470"/><path d="m16 176h432v184c0 22.089844-17.910156 40-40 40h-352c-22.089844 0-40-17.910156-40-40zm0 0" fill="#cfdfe8"/><path d="m0 144h464v32h-464zm0 0" fill="#5a6470"/><path d="m344 32h-224c-57.441406 0-104 50.144531-104 112h432c0-61.855469-46.558594-112-104-112zm0 0" fill="#cfdfe8"/><path d="m144 224h176v176h-176zm0 0" fill="#aabece"/><path d="m176 256h112v144h-112zm0 0" fill="#fff"/><g fill="#747c84"><path d="m200 296h16v16h-16zm0 0"/><path d="m200 344h16v16h-16zm0 0"/><path d="m256 312h-16c-4.417969 0-8-3.582031-8-8s3.582031-8 8-8h16c4.417969 0 8 3.582031 8 8s-3.582031 8-8 8zm0 0"/><path d="m256 360h-16c-4.417969 0-8-3.582031-8-8s3.582031-8 8-8h16c4.417969 0 8 3.582031 8 8s-3.582031 8-8 8zm0 0"/></g><path d="m72 104c-1.65625.003906-3.269531-.511719-4.617188-1.472656-3.589843-2.550782-4.445312-7.523438-1.910156-11.128906 13.3125-16.894532 31.605469-29.167969 52.289063-35.078126 4.238281-1.238281 8.679687 1.199219 9.917969 5.441407 1.238281 4.238281-1.199219 8.679687-5.441407 9.917969-17.183593 4.972656-32.4375 15.078124-43.71875 28.960937-1.5 2.109375-3.929687 3.359375-6.519531 3.359375zm0 0" fill="#aabece"/><path d="m384 104c-2.59375.003906-5.023438-1.25-6.527344-3.359375-11.28125-13.882813-26.535156-23.988281-43.71875-28.960937-4.242187-1.238282-6.679687-5.679688-5.441406-9.917969 1.238281-4.242188 5.679688-6.679688 9.917969-5.441407 20.683593 5.910157 38.976562 18.175782 52.296875 35.0625 1.726562 2.441407 1.945312 5.640626.570312 8.292969-1.371094 2.65625-4.109375 4.320313-7.097656 4.324219zm0 0" fill="#aabece"/><path d="m208 0h48v32h-48zm0 0" fill="#747c84"/></svg>